<svg xmlns="http://www.w3.org/2000/svg" version="1.1" xmlns:xlink="http://www.w3.org/1999/xlink" xmlns:svgjs="http://svgjs.dev/svgjs" width="1000" height="1125" viewBox="0 0 1000 1125"><g transform="matrix(1,0,0,1,1.7053025658242404e-13,0)"><svg viewBox="0 0 320 360" data-background-color="#ffffff" preserveAspectRatio="xMidYMid meet" height="1125" width="1000" xmlns="http://www.w3.org/2000/svg" xmlns:xlink="http://www.w3.org/1999/xlink"><g id="tight-bounds" transform="matrix(1,0,0,1,0,0)"><svg viewBox="0 0 320 360" height="360" width="320"><g><svg></svg></g><g><svg viewBox="0 0 320 360" height="360" width="320"><g><path xmlns="http://www.w3.org/2000/svg" d="M20.961 227.22l3.726 4.658-1.863-6.056c-0.466-2.795-3.726 0.466-1.863 1.398M25.153 224.425c1.397 2.329 2.795 4.658 2.795 6.987 0 3.261 2.795 4.658 5.123 5.589-3.261-3.726-5.124-13.974-7.918-12.576M204.017 26.929c7.918 0 15.371-0.932 23.756 0.931 20.495 5.124 37.729 15.371 49.374 29.811l32.606 52.169c1.397 13.042 4.192 27.482 3.726 43.319 3.261 0 2.795-4.658 6.521-5.59-3.726 9.316-5.59 20.961-6.521 34.469-2.329-7.453 0-18.632 0.466-24.687-3.261 5.124-5.124 1.397-5.124-0.932 0.466-3.726-1.397-3.261-2.795-4.658-5.124-4.658-8.384-9.782-12.11-17.7 2.329-6.055 2.795-14.905-4.658-19.563-2.329-1.397-5.124-3.726-6.521-7.453-1.863-5.124-5.124-11.179-4.193-19.097 0.466-2.329-6.987 5.124-11.179 1.863-18.166-12.576-36.332-27.016-58.224-39.127-11.645 0-20.029-4.192-24.221-9.316-3.726-4.658-0.932-10.713 4.658-11.179 3.261 0 6.987-0.932 9.782 0.932 0.466-1.863 2.329-4.192 4.657-4.192M157.904 16.215l0.932 0.466c4.658 0.932 6.987 7.453 12.11 5.124 0 3.261 0.466 6.521-0.466 8.85-1.397 3.726-5.59 3.726-8.85 3.726-31.208-1.863-49.374 11.179-68.471 22.358-5.124 3.261-10.713 5.59-14.906 9.782-20.029 18.632-41.921 35.866-47.045 70.335l-4.192 38.195c-0.466 4.192-5.124 8.384-4.192 13.508l3.26 22.824c-3.261-3.261-5.124 0.932-4.192 2.795 0.466 1.397 2.329 6.055 5.124 1.863 3.726 6.987 7.453 20.495 12.576 26.55 15.837 18.632 36.332 35.4 53.101 52.169 4.192-0.932 7.453-0.932 8.384-3.727 1.397 2.795-1.397 5.59-3.726 6.056 7.453 4.658 15.837 8.85 27.016 9.781 14.44 0.932 27.948 3.261 40.524 6.522 6.521-1.863 13.042-2.795 20.029-3.261 2.329 0 3.726-3.726 6.521-4.658l0.466-4.658c2.795 4.192 2.329-1.397 0.466-4.192 3.261 2.795 4.192 5.124 5.589 6.987 0-1.397 3.726-6.521 3.727-0.466l0.931-6.055c1.397-0.932 1.863 5.124 3.261 0.931 1.397-4.192 4.192-0.932 6.987-2.329-0.932 1.863-0.466 5.59 2.794 3.261l3.727-3.261c2.329 5.59 6.055 3.261 7.918 2.329 20.495-13.042 40.99-28.413 60.553-43.784l-0.466 6.055 2.329-7.453c2.329 2.329 4.192 0.466 5.124-0.931 2.795-4.658 6.521-9.316 12.577-13.508-7.453 20.029-16.303 35.866-27.482 48.908l-4.658 5.59c0 3.261-0.932 7.453-4.658 7.918-1.863 0.466-5.59-0.932-8.384 1.863-1.397 1.863 3.261 5.59-0.466 2.795-3.261-2.329-6.521 0-10.248 0.932-2.795 0.932 1.863 3.726 2.795 5.589 0.932 1.863 1.863 3.726 1.398 6.056l-5.124-5.59c-6.055 3.261-9.782 9.316-14.906 13.974-2.329 1.863-1.397 5.124-1.397 7.918-3.261 0-6.987-0.932-8.85 0.932-1.397 1.863-0.932 4.658-0.932 7.453-4.658-0.466-5.124-7.453-9.315-6.056-4.192 0.932-8.85 1.397-12.577 3.727 2.795 5.59-4.658 2.329-3.726 3.26-6.987-4.192-13.042-7.453-20.495-4.658-15.837-5.124-35.4-2.795-49.84-0.931 0-2.329 0.466-4.658-0.466-5.124-0.932 2.329-3.726 1.397-3.26 1.397-8.85-6.055-17.7-9.782-27.016-14.905-8.384 0.932-16.303-3.261-18.632-5.59-6.521-6.055-13.974-2.795-20.029-4.192-13.042-3.261-17.7-16.769-19.098-26.084-0.932-4.658-4.658-6.521-6.055-6.056-6.055-19.563-15.371-37.263-22.824-55.429-1.863-4.658-1.397-9.316-1.397-14.44 2.329 0.932 4.658 0.466 4.192-2.794-2.329-15.371-7.918-27.016-13.974-38.195 3.261-15.837 3.726-34.469 11.179-48.443 6.521-12.576 18.632-19.098 27.016-29.811 2.795-3.726 2.795-8.85 5.59-12.11 9.316-9.316 18.632-19.098 28.879-27.482 4.658-3.726 10.247 0 17.234-1.397 2.329-8.384 11.645-15.837 20.495-13.508 3.726 0.932 11.179-8.85 13.508-9.782 3.726-1.397 1.863 3.726 1.863 6.987 8.85-6.987 20.961-10.713 32.14-14.906" fill="#ff0000" fill-rule="nonzero" stroke="none" stroke-width="1" stroke-linecap="butt" stroke-linejoin="miter" stroke-miterlimit="10" stroke-dasharray="" stroke-dashoffset="0" font-family="none" font-weight="none" font-size="none" text-anchor="none" style="mix-blend-mode: normal" data-fill-palette-color="tertiary"></path></g><g transform="matrix(1,0,0,1,64,132.88631012228572)"><svg viewBox="0 0 192 94.22737975542857" height="94.22737975542857" width="192"><g><svg viewBox="0 0 192 94.22737975542857" height="94.22737975542857" width="192"><g><svg viewBox="0 0 192 94.22737975542857" height="94.22737975542857" width="192"><g transform="matrix(1,0,0,1,0,55.99702693910204)"><svg viewBox="0 0 192 38.23035281632653" height="38.23035281632653" width="192"><g id="textblocktransform"><svg viewBox="0 0 192 38.23035281632653" height="38.23035281632653" width="192" id="textblock"><g><svg viewBox="0 0 192 21.6734693877551" height="21.6734693877551" width="192"><g transform="matrix(1,0,0,1,0,0)"><svg width="192" viewBox="4.349999904632568 -35.25 391.9700012207031 44.25" height="21.6734693877551" data-palette-color="#ff0000"><path d="M4.35 0L4.35-35.25 16.2-35.25Q24.65-35.25 29.28-30.68 33.9-26.1 33.9-17.65L33.9-17.65Q33.9-9.2 29.28-4.6 24.65 0 16.2 0L16.2 0 4.35 0ZM8.45-3.5L15.95-3.5Q29.65-3.5 29.65-17.65L29.65-17.65Q29.65-31.75 15.95-31.75L15.95-31.75 8.45-31.75 8.45-3.5ZM61.1-13.05L61.1-11.55 43.3-11.55Q43.5-7.3 45.6-5.13 47.7-2.95 51.55-2.95L51.55-2.95Q55.8-2.95 59.35-5.85L59.35-5.85 60.7-2.9Q59.1-1.4 56.6-0.53 54.1 0.35 51.5 0.35L51.5 0.35Q45.8 0.35 42.52-3 39.25-6.35 39.25-12.25L39.25-12.25Q39.25-16 40.7-18.88 42.15-21.75 44.77-23.35 47.4-24.95 50.75-24.95L50.75-24.95Q55.6-24.95 58.35-21.78 61.1-18.6 61.1-13.05L61.1-13.05ZM50.8-21.8Q47.6-21.8 45.67-19.8 43.75-17.8 43.4-14.15L43.4-14.15 57.55-14.15Q57.45-17.85 55.7-19.83 53.95-21.8 50.8-21.8L50.8-21.8ZM79.3-24.95Q82.5-24.95 84.95-23.4 87.4-21.85 88.75-19 90.1-16.15 90.1-12.4L90.1-12.4Q90.1-8.6 88.75-5.73 87.4-2.85 84.95-1.25 82.5 0.35 79.3 0.35L79.3 0.35Q76.45 0.35 74.32-0.9 72.2-2.15 71.1-4.45L71.1-4.45 71.1 0 67.05 0 67.05-35.25 71.1-35.25 71.1-20.15Q72.2-22.45 74.32-23.7 76.45-24.95 79.3-24.95L79.3-24.95ZM78.5-3Q82.05-3 84-5.48 85.95-7.95 85.95-12.4L85.95-12.4Q85.95-16.75 84-19.15 82.05-21.55 78.5-21.55L78.5-21.55Q74.95-21.55 73.02-19.15 71.1-16.75 71.1-12.3L71.1-12.3Q71.1-7.85 73.02-5.43 74.95-3 78.5-3L78.5-3ZM123.24-24.95Q131.34-24.95 131.34-15.3L131.34-15.3 131.34 0 127.29 0 127.29-15.1Q127.29-18.45 126.12-20 124.94-21.55 122.34-21.55L122.34-21.55Q119.29-21.55 117.54-19.5 115.79-17.45 115.79-13.9L115.79-13.9 115.79 0 111.74 0 111.74-15.1Q111.74-18.5 110.54-20.03 109.34-21.55 106.74-21.55L106.74-21.55Q103.69-21.55 101.94-19.5 100.19-17.45 100.19-13.9L100.19-13.9 100.19 0 96.14 0 96.14-24.35 100.14-24.35 100.14-20.5Q101.24-22.65 103.19-23.8 105.14-24.95 107.69-24.95L107.69-24.95Q113.34-24.95 115.14-20.15L115.14-20.15Q116.19-22.4 118.34-23.68 120.49-24.95 123.24-24.95L123.24-24.95ZM148.64-24.95Q153.29-24.95 155.56-22.58 157.84-20.2 157.84-15.35L157.84-15.35 157.84 0 153.89 0 153.89-4.15Q152.94-2 150.99-0.83 149.04 0.35 146.49 0.35L146.49 0.35Q144.14 0.35 142.17-0.6 140.19-1.55 139.04-3.25 137.89-4.95 137.89-7L137.89-7Q137.89-9.75 139.29-11.28 140.69-12.8 143.89-13.48 147.09-14.15 152.79-14.15L152.79-14.15 153.89-14.15 153.89-15.8Q153.89-18.85 152.64-20.23 151.39-21.6 148.59-21.6L148.59-21.6Q144.39-21.6 140.24-19L140.24-19 138.89-21.95Q140.79-23.3 143.47-24.13 146.14-24.95 148.64-24.95L148.64-24.95ZM147.04-2.85Q150.04-2.85 151.97-4.88 153.89-6.9 153.89-10.1L153.89-10.1 153.89-11.55 152.99-11.55Q148.59-11.55 146.29-11.18 143.99-10.8 143.02-9.93 142.04-9.05 142.04-7.35L142.04-7.35Q142.04-5.4 143.47-4.13 144.89-2.85 147.04-2.85L147.04-2.85ZM169.29 0L165.24 0 165.24-35.25 169.29-35.25 169.29 0ZM186.03-4.4L194.29-24.3 198.34-24.3 183.94 9 179.78 9 183.89-0.3 173.59-24.3 177.89-24.3 186.03-4.4ZM211.98-24.95Q216.63-24.95 218.91-22.58 221.18-20.2 221.18-15.35L221.18-15.35 221.18 0 217.23 0 217.23-4.15Q216.28-2 214.33-0.83 212.38 0.35 209.83 0.35L209.83 0.35Q207.48 0.35 205.51-0.6 203.53-1.55 202.38-3.25 201.23-4.95 201.23-7L201.23-7Q201.23-9.75 202.63-11.28 204.03-12.8 207.23-13.48 210.43-14.15 216.13-14.15L216.13-14.15 217.23-14.15 217.23-15.8Q217.23-18.85 215.98-20.23 214.73-21.6 211.93-21.6L211.93-21.6Q207.73-21.6 203.58-19L203.58-19 202.23-21.95Q204.13-23.3 206.81-24.13 209.48-24.95 211.98-24.95L211.98-24.95ZM210.38-2.85Q213.38-2.85 215.31-4.88 217.23-6.9 217.23-10.1L217.23-10.1 217.23-11.55 216.33-11.55Q211.93-11.55 209.63-11.18 207.33-10.8 206.36-9.93 205.38-9.05 205.38-7.35L205.38-7.35Q205.38-5.4 206.81-4.13 208.23-2.85 210.38-2.85L210.38-2.85ZM262.08-18.1Q265.13-17.3 266.8-15.1 268.48-12.9 268.48-9.6L268.48-9.6Q268.48-4.95 265.43-2.48 262.38 0 256.78 0L256.78 0 242.08 0 242.08-35.25 256.23-35.25Q261.68-35.25 264.68-32.85 267.68-30.45 267.68-26.05L267.68-26.05Q267.68-23.2 266.2-21.15 264.73-19.1 262.08-18.1L262.08-18.1ZM246.13-31.85L246.13-19.6 255.63-19.6Q259.58-19.6 261.6-21.2 263.63-22.8 263.63-25.85L263.63-25.85Q263.63-31.85 255.63-31.85L255.63-31.85 246.13-31.85ZM256.38-3.4Q260.53-3.4 262.5-4.93 264.48-6.45 264.48-9.7L264.48-9.7Q264.48-16.2 256.38-16.2L256.38-16.2 246.13-16.2 246.13-3.4 256.38-3.4ZM279.23 0L275.18 0 275.18-24.35 279.23-24.35 279.23 0ZM274.78-30.35L274.78-34.9 279.68-34.9 279.68-30.35 274.78-30.35ZM295.02 0.35Q288.87 0.35 285.27-2.8L285.27-2.8 286.62-5.8Q288.57-4.25 290.6-3.58 292.62-2.9 295.17-2.9L295.17-2.9Q297.87-2.9 299.3-3.83 300.72-4.75 300.72-6.5L300.72-6.5Q300.72-7.95 299.77-8.8 298.82-9.65 296.62-10.15L296.62-10.15 292.52-11.1Q289.42-11.8 287.77-13.5 286.12-15.2 286.12-17.7L286.12-17.7Q286.12-20.95 288.67-22.95 291.22-24.95 295.47-24.95L295.47-24.95Q298.02-24.95 300.32-24.13 302.62-23.3 304.17-21.75L304.17-21.75 302.82-18.8Q299.47-21.65 295.47-21.65L295.47-21.65Q292.92-21.65 291.5-20.68 290.07-19.7 290.07-17.95L290.07-17.95Q290.07-16.5 290.95-15.63 291.82-14.75 293.77-14.3L293.77-14.3 297.92-13.3Q301.32-12.5 302.97-10.88 304.62-9.25 304.62-6.65L304.62-6.65Q304.62-3.45 302.05-1.55 299.47 0.35 295.02 0.35L295.02 0.35ZM336.42-4.8L343.37-24.35 347.42-24.35 338.37 0 334.47 0 327.62-18.85 320.72 0 316.87 0 307.82-24.35 312.02-24.35 318.92-4.8 325.97-24.35 329.47-24.35 336.42-4.8ZM361.87-24.95Q366.52-24.95 368.79-22.58 371.07-20.2 371.07-15.35L371.07-15.35 371.07 0 367.12 0 367.12-4.15Q366.17-2 364.22-0.83 362.27 0.35 359.72 0.35L359.72 0.35Q357.37 0.35 355.39-0.6 353.42-1.55 352.27-3.25 351.12-4.95 351.12-7L351.12-7Q351.12-9.75 352.52-11.28 353.92-12.8 357.12-13.48 360.32-14.15 366.02-14.15L366.02-14.15 367.12-14.15 367.12-15.8Q367.12-18.85 365.87-20.23 364.62-21.6 361.82-21.6L361.82-21.6Q357.62-21.6 353.47-19L353.47-19 352.12-21.95Q354.02-23.3 356.69-24.13 359.37-24.95 361.87-24.95L361.87-24.95ZM360.27-2.85Q363.27-2.85 365.19-4.88 367.12-6.9 367.12-10.1L367.12-10.1 367.12-11.55 366.22-11.55Q361.82-11.55 359.52-11.18 357.22-10.8 356.24-9.93 355.27-9.05 355.27-7.35L355.27-7.35Q355.27-5.4 356.69-4.13 358.12-2.85 360.27-2.85L360.27-2.85ZM386.72 0.35Q380.57 0.35 376.97-2.8L376.97-2.8 378.32-5.8Q380.27-4.25 382.29-3.58 384.32-2.9 386.87-2.9L386.87-2.9Q389.57-2.9 390.99-3.83 392.42-4.75 392.42-6.5L392.42-6.5Q392.42-7.95 391.47-8.8 390.52-9.65 388.32-10.15L388.32-10.15 384.22-11.1Q381.12-11.8 379.47-13.5 377.82-15.2 377.82-17.7L377.82-17.7Q377.82-20.95 380.37-22.95 382.92-24.95 387.17-24.95L387.17-24.95Q389.72-24.95 392.02-24.13 394.32-23.3 395.87-21.75L395.87-21.75 394.52-18.8Q391.17-21.65 387.17-21.65L387.17-21.65Q384.62-21.65 383.19-20.68 381.77-19.7 381.77-17.95L381.77-17.95Q381.77-16.5 382.64-15.63 383.52-14.75 385.47-14.3L385.47-14.3 389.62-13.3Q393.02-12.5 394.67-10.88 396.32-9.25 396.32-6.65L396.32-6.65Q396.32-3.45 393.74-1.55 391.17 0.35 386.72 0.35L386.72 0.35Z" opacity="1" transform="matrix(1,0,0,1,0,0)" fill="#ff0000" class="wordmark-text-0" data-fill-palette-color="primary" id="text-0"></path></svg></g></svg></g><g transform="matrix(1,0,0,1,0,24.83614873469388)"><svg viewBox="0 0 192 13.394204081632653" height="13.394204081632653" width="192"><g transform="matrix(1,0,0,1,0,0)"><svg width="192" viewBox="0.8500000238418579 -36.5 688.780029296875 48.04999923706055" height="13.394204081632653" data-palette-color="#ca3433"><path d="M10.8-25.45Q11.65-25.45 13.1-25.5 14.55-25.55 15.4-25.6L15.4-25.6 15.35-24.4Q15.3-23.8 14.95-23.48 14.6-23.15 14.1-23.15L14.1-23.15 9.15-23.15 9.15-21.35 9.1-5.65Q9.1-2.95 11.5-2.95L11.5-2.95Q12.2-2.95 12.88-3.2 13.55-3.45 13.75-3.9L13.75-3.9Q14.35-3.1 14.35-2.2L14.35-2.2Q14.35-0.95 13.1-0.2 11.85 0.55 9.85 0.55L9.85 0.55Q7.4 0.55 6-1 4.6-2.55 4.6-5.3L4.6-5.3 4.6-23.15 3.85-23.15Q1.85-23.15 0.85-23L0.85-23 0.9-24.25Q0.95-24.85 1.3-25.15 1.65-25.45 2.2-25.45L2.2-25.45 4.6-25.45 4.6-29.65Q4.6-30.8 5.33-31.45 6.05-32.1 7.25-32.1L7.25-32.1Q8.65-32.1 9.8-31.1L9.8-31.1Q9.25-29.2 9.2-25.45L9.2-25.45 10.8-25.45ZM67.44-6Q67.44-2.5 68.14-0.45L68.14-0.45Q66.99 0.6 65.59 0.6L65.59 0.6Q64.44 0.6 63.72-0.08 62.99-0.75 62.99-1.9L62.99-1.9 62.94-15.2Q62.94-19.55 61.84-21.65 60.74-23.75 58.04-23.75L58.04-23.75Q56.34-23.75 54.82-22.53 53.29-21.3 52.32-18.65 51.34-16 51.34-12L51.34-12Q51.34-5.75 51.47-3.8 51.59-1.85 52.14-0.4L52.14-0.4Q51.04 0.6 49.54 0.6L49.54 0.6Q48.39 0.6 47.64-0.13 46.89-0.85 46.89-2.1L46.89-2.1 46.89-34.05Q46.84-35.25 47.54-35.88 48.24-36.5 49.34-36.5L49.34-36.5Q50.19-36.5 50.97-36.18 51.74-35.85 52.14-35.5L52.14-35.5Q51.69-34.1 51.54-32.18 51.39-30.25 51.34-26.9L51.34-26.9 51.29-20.5Q52.39-23.2 54.49-24.68 56.59-26.15 59.44-26.15L59.44-26.15Q67.44-26.15 67.44-15.8L67.44-15.8 67.44-6ZM119.59-6.6Q120.34-6.3 120.34-5.45L120.34-5.45Q120.34-4.9 119.99-4.05L119.99-4.05Q119.09-1.75 116.69-0.55 114.29 0.65 110.99 0.65L110.99 0.65Q105.44 0.65 102.26-2.8 99.09-6.25 99.09-12.65L99.09-12.65Q99.09-18.95 102.24-22.55 105.39-26.15 111.19-26.15L111.19-26.15Q115.39-26.15 117.96-24.25 120.54-22.35 120.54-18.85L120.54-18.85Q120.54-15.15 117.54-13.2 114.54-11.25 109.29-11.25L109.29-11.25Q106.64-11.25 103.99-11.55L103.99-11.55Q104.59-2.35 112.14-2.35L112.14-2.35Q114.84-2.35 116.81-3.48 118.79-4.6 119.59-6.6L119.59-6.6ZM110.99-24.25Q107.74-24.25 105.86-21.45 103.99-18.65 103.94-13.4L103.94-13.4Q104.99-13.3 107.29-13.2L107.29-13.2Q111.09-13.2 113.39-14.58 115.69-15.95 115.69-19.5L115.69-19.5Q115.69-22.1 114.34-23.18 112.99-24.25 110.99-24.25L110.99-24.25ZM171.98-4.1Q172.43-3.85 172.66-3.2 172.88-2.55 172.88-1.85L172.88-1.85Q172.88-1.05 172.58-0.53 172.28 0 171.73 0L171.73 0 155.88 0Q154.68 0 153.96-0.65 153.23-1.3 153.23-2.5L153.23-2.5 153.23-28.1Q153.23-31.45 152.53-33.5L152.53-33.5Q153.28-34.2 154.13-34.45 154.98-34.7 156.48-34.7L156.48-34.7 171.48-34.7Q172.28-34.7 172.28-33.4L172.28-33.4Q172.28-32.6 171.91-31.78 171.53-30.95 170.98-30.7L170.98-30.7Q164.48-32.1 157.73-32.25L157.73-32.25 157.78-19.5 169.73-19.5Q169.88-18.85 169.88-18.2L169.88-18.2Q169.88-17.45 169.73-16.85L169.73-16.85 157.78-16.85 157.83-2.4Q161.18-2.45 165.06-2.95 168.93-3.45 171.98-4.1L171.98-4.1ZM226.48-6Q226.58-2.15 227.23-0.45L227.23-0.45Q226.08 0.6 224.63 0.6L224.63 0.6Q223.48 0.6 222.73-0.08 221.98-0.75 221.98-1.9L221.98-1.9 221.98-15.2Q221.93-19.5 220.83-21.55 219.73-23.6 217.08-23.6L217.08-23.6Q215.38-23.6 213.85-22.38 212.33-21.15 211.35-18.55 210.38-15.95 210.38-12L210.38-12Q210.38-5.75 210.48-3.8 210.58-1.85 211.13-0.4L211.13-0.4Q210.73 0 210.05 0.3 209.38 0.6 208.53 0.6L208.53 0.6Q207.33 0.6 206.6-0.13 205.88-0.85 205.88-2.1L205.88-2.1 205.88-20.05Q205.83-21.45 205.5-22.03 205.18-22.6 204.48-22.6L204.48-22.6Q203.53-22.6 203.18-21.9L203.18-21.9Q202.58-22.75 202.58-23.55L202.58-23.55Q202.58-24.7 203.43-25.4 204.28-26.1 205.78-26.1L205.78-26.1Q207.78-26.1 208.85-24.73 209.93-23.35 209.93-20.7L209.93-20.7 209.93-20.1Q210.98-23 213.18-24.58 215.38-26.15 218.43-26.15L218.43-26.15Q226.48-26.15 226.48-15.8L226.48-15.8 226.48-6ZM267.07 11.55Q263.32 11.55 260.85 10.05 258.37 8.55 258.37 5.6L258.37 5.6Q258.37 3.9 259.35 2.85 260.32 1.8 261.77 1.8L261.77 1.8Q263.37 1.8 263.97 2.65L263.97 2.65Q262.57 3.75 262.57 5.75L262.57 5.75Q262.57 7.7 263.82 8.75 265.07 9.8 267.22 9.8L267.22 9.8Q271.22 9.8 273.2 6.75 275.17 3.7 275.17-2.05L275.17-2.05 275.17-5.55Q274.27-2.8 272.17-1.33 270.07 0.15 267.02 0.15L267.02 0.15Q262.77 0.15 260.47-2.88 258.17-5.9 258.17-12.4L258.17-12.4Q258.17-18.3 260.8-22.23 263.42-26.15 269.77-26.15L269.77-26.15Q272.62-26.15 275.3-25.35 277.97-24.55 279.67-22.85L279.67-22.85 279.67-2.25Q279.67 11.55 267.07 11.55L267.07 11.55ZM268.27-2.2Q271.77-2.2 273.45-5.15 275.12-8.1 275.12-12.4L275.12-12.4 275.17-22.5Q274.37-23.35 272.92-23.8 271.47-24.25 269.77-24.25L269.77-24.25Q265.82-24.25 264.4-20.93 262.97-17.6 262.97-11.95L262.97-11.95Q262.97-6.75 264.25-4.48 265.52-2.2 268.27-2.2L268.27-2.2ZM315.32-29.75Q314.07-29.75 313.22-30.6 312.37-31.45 312.37-32.65L312.37-32.65Q312.37-33.9 313.22-34.75 314.07-35.6 315.32-35.6L315.32-35.6Q316.52-35.6 317.37-34.75 318.22-33.9 318.22-32.65L318.22-32.65Q318.22-31.45 317.37-30.6 316.52-29.75 315.32-29.75L315.32-29.75ZM317.77-6Q317.77-2.3 318.47-0.45L318.47-0.45Q317.42 0.6 315.87 0.6L315.87 0.6Q314.77 0.6 314.04-0.08 313.32-0.75 313.32-1.9L313.32-1.9 313.27-19.55Q313.27-23.3 312.57-25.15L312.57-25.15Q313.87-26.15 315.17-26.15L315.17-26.15Q316.32-26.15 317.02-25.5 317.72-24.85 317.72-23.7L317.72-23.7 317.77-6ZM372.96-6Q373.06-2.15 373.71-0.45L373.71-0.45Q372.56 0.6 371.11 0.6L371.11 0.6Q369.96 0.6 369.21-0.08 368.46-0.75 368.46-1.9L368.46-1.9 368.46-15.2Q368.41-19.5 367.31-21.55 366.21-23.6 363.56-23.6L363.56-23.6Q361.86-23.6 360.33-22.38 358.81-21.15 357.83-18.55 356.86-15.95 356.86-12L356.86-12Q356.86-5.75 356.96-3.8 357.06-1.85 357.61-0.4L357.61-0.4Q357.21 0 356.53 0.3 355.86 0.6 355.01 0.6L355.01 0.6Q353.81 0.6 353.08-0.13 352.36-0.85 352.36-2.1L352.36-2.1 352.36-20.05Q352.31-21.45 351.98-22.03 351.66-22.6 350.96-22.6L350.96-22.6Q350.01-22.6 349.66-21.9L349.66-21.9Q349.06-22.75 349.06-23.55L349.06-23.55Q349.06-24.7 349.91-25.4 350.76-26.1 352.26-26.1L352.26-26.1Q354.26-26.1 355.33-24.73 356.41-23.35 356.41-20.7L356.41-20.7 356.41-20.1Q357.46-23 359.66-24.58 361.86-26.15 364.91-26.15L364.91-26.15Q372.96-26.15 372.96-15.8L372.96-15.8 372.96-6ZM425.15-6.6Q425.9-6.3 425.9-5.45L425.9-5.45Q425.9-4.9 425.55-4.05L425.55-4.05Q424.65-1.75 422.25-0.55 419.85 0.65 416.55 0.65L416.55 0.65Q411 0.65 407.83-2.8 404.65-6.25 404.65-12.65L404.65-12.65Q404.65-18.95 407.8-22.55 410.95-26.15 416.75-26.15L416.75-26.15Q420.95-26.15 423.53-24.25 426.1-22.35 426.1-18.85L426.1-18.85Q426.1-15.15 423.1-13.2 420.1-11.25 414.85-11.25L414.85-11.25Q412.2-11.25 409.55-11.55L409.55-11.55Q410.15-2.35 417.7-2.35L417.7-2.35Q420.4-2.35 422.38-3.48 424.35-4.6 425.15-6.6L425.15-6.6ZM416.55-24.25Q413.3-24.25 411.43-21.45 409.55-18.65 409.5-13.4L409.5-13.4Q410.55-13.3 412.85-13.2L412.85-13.2Q416.65-13.2 418.95-14.58 421.25-15.95 421.25-19.5L421.25-19.5Q421.25-22.1 419.9-23.18 418.55-24.25 416.55-24.25L416.55-24.25ZM476.7-6.6Q477.45-6.3 477.45-5.45L477.45-5.45Q477.45-4.9 477.1-4.05L477.1-4.05Q476.2-1.75 473.8-0.55 471.4 0.65 468.1 0.65L468.1 0.65Q462.55 0.65 459.37-2.8 456.2-6.25 456.2-12.65L456.2-12.65Q456.2-18.95 459.35-22.55 462.5-26.15 468.3-26.15L468.3-26.15Q472.5-26.15 475.07-24.25 477.65-22.35 477.65-18.85L477.65-18.85Q477.65-15.15 474.65-13.2 471.65-11.25 466.4-11.25L466.4-11.25Q463.75-11.25 461.1-11.55L461.1-11.55Q461.7-2.35 469.25-2.35L469.25-2.35Q471.95-2.35 473.92-3.48 475.9-4.6 476.7-6.6L476.7-6.6ZM468.1-24.25Q464.85-24.25 462.97-21.45 461.1-18.65 461.05-13.4L461.05-13.4Q462.1-13.3 464.4-13.2L464.4-13.2Q468.2-13.2 470.5-14.58 472.8-15.95 472.8-19.5L472.8-19.5Q472.8-22.1 471.45-23.18 470.1-24.25 468.1-24.25L468.1-24.25ZM520.79-26.15Q523.39-26.15 525.02-24.73 526.64-23.3 526.64-20.85L526.64-20.85Q526.64-19.1 525.64-18 524.64-16.9 523.24-16.9L523.24-16.9Q521.99-16.9 521.44-17.55L521.44-17.55Q521.99-18.4 522.19-19.1 522.39-19.8 522.39-20.75L522.39-20.75Q522.39-23.75 519.64-23.75L519.64-23.75Q517.49-23.75 516.07-20.85 514.64-17.95 514.64-12L514.64-12Q514.64-5.85 514.74-3.93 514.84-2 515.39-0.55L515.39-0.55Q514.99-0.15 514.32 0.15 513.64 0.45 512.74 0.5L512.74 0.5Q511.64 0.5 510.89-0.23 510.14-0.95 510.14-2.2L510.14-2.2 510.14-20.05Q510.14-21.4 509.82-22 509.49-22.6 508.74-22.6L508.74-22.6Q507.79-22.6 507.44-21.9L507.44-21.9Q506.84-22.75 506.84-23.55L506.84-23.55Q506.84-24.7 507.69-25.4 508.54-26.1 510.04-26.1L510.04-26.1Q512.04-26.1 513.12-24.68 514.19-23.25 514.14-20.5L514.14-20.5Q514.99-23.25 516.69-24.7 518.39-26.15 520.79-26.15L520.79-26.15ZM570.74 0.65Q563.99 0.65 560.34-3.98 556.69-8.6 556.69-17.3L556.69-17.3Q556.69-26 560.39-30.68 564.09-35.35 570.89-35.35L570.89-35.35Q573.44-35.35 575.76-34.68 578.09-34 579.49-32.8 580.89-31.6 580.89-30.2L580.89-30.2Q580.89-29.05 579.89-28.28 578.89-27.5 577.19-27.55L577.19-27.55Q576.84-30.4 575.19-31.9 573.54-33.4 570.99-33.4L570.99-33.4Q561.74-33.4 561.74-17.35L561.74-17.35Q561.74-1.3 570.94-1.3L570.94-1.3Q574.99-1.3 576.49-4.25 577.99-7.2 577.99-11.05L577.99-11.05Q577.99-16.95 574.44-17.9L574.44-17.9Q574.69-18.7 575.49-19.1 576.29-19.5 577.39-19.5L577.39-19.5Q579.69-19.5 581.19-17.68 582.69-15.85 582.69-12L582.69-12Q582.69-8.45 581.34-5.58 579.99-2.7 577.29-1.03 574.59 0.65 570.74 0.65L570.74 0.65ZM637.98-3.65Q638.53-2.9 638.53-2L638.53-2Q638.53-0.85 637.71-0.18 636.88 0.5 635.38 0.5L635.38 0.5Q633.38 0.5 632.31-0.85 631.23-2.2 631.23-4.85L631.23-4.85 631.23-5.5Q630.23-2.55 628.06-0.93 625.88 0.7 622.88 0.7L622.88 0.7Q618.78 0.7 616.91-1.7 615.03-4.1 615.03-9.75L615.03-9.75 615.03-19.55Q615.03-23.05 614.33-25.1L614.33-25.1Q615.58-26.15 616.93-26.15L616.93-26.15Q618.08-26.15 618.81-25.48 619.53-24.8 619.53-23.65L619.53-23.65 619.53-10.35Q619.53-5.65 620.58-3.68 621.63-1.7 624.23-1.7L624.23-1.7Q625.93-1.7 627.41-2.95 628.88-4.2 629.83-6.85 630.78-9.5 630.78-13.55L630.78-13.55Q630.78-19.8 630.68-21.73 630.58-23.65 630.03-25.15L630.03-25.15Q631.18-26.15 632.63-26.15L632.63-26.15Q633.73-26.15 634.48-25.43 635.23-24.7 635.23-23.45L635.23-23.45 635.28-5.5Q635.28-4.1 635.61-3.53 635.93-2.95 636.63-2.95L636.63-2.95Q637.58-2.95 637.98-3.65L637.98-3.65ZM689.58-23.45L689.63-2.5Q689.63 11.55 677.63 11.55L677.63 11.55Q673.88 11.55 671.38 10.28 668.88 9 668.88 6.2L668.88 6.2Q668.88 4.75 669.8 3.78 670.73 2.8 672.23 2.8L672.23 2.8Q673.73 2.8 674.33 3.65L674.33 3.65Q673.68 4.1 673.38 4.78 673.08 5.45 673.08 6.05L673.08 6.05Q673.08 7.9 674.4 8.85 675.73 9.8 677.63 9.8L677.63 9.8Q685.38 9.8 685.38-2.25L685.38-2.25Q685.38-3.25 685.58-5.95L685.58-5.95Q684.53-2.9 682.35-1.25 680.18 0.4 676.98 0.4L676.98 0.4Q673.13 0.4 671.25-2 669.38-4.4 669.38-10L669.38-10 669.38-19.55Q669.38-23.05 668.68-25.1L668.68-25.1Q669.93-26.15 671.28-26.15L671.28-26.15Q672.43-26.15 673.15-25.48 673.88-24.8 673.88-23.65L673.88-23.65 673.88-10.6Q673.88-6.1 674.88-4.05 675.88-2 678.28-2L678.28-2Q681.23-2 683.18-4.93 685.13-7.85 685.13-13.8L685.13-13.8Q685.13-19.9 685.03-21.8 684.93-23.7 684.38-25.15L684.38-25.15Q685.53-26.15 686.98-26.15L686.98-26.15Q688.08-26.15 688.83-25.43 689.58-24.7 689.58-23.45L689.58-23.45Z" opacity="1" transform="matrix(1,0,0,1,0,0)" fill="#ca3433" class="slogan-text-1" data-fill-palette-color="secondary" id="text-1"></path></svg></g></svg></g></svg></g></svg></g><g transform="matrix(1,0,0,1,74.13235701449554,0)"><svg viewBox="0 0 43.735285971008906 52.83434759216327" height="52.83434759216327" width="43.735285971008906"><g><svg xmlns="http://www.w3.org/2000/svg" xmlns:xlink="http://www.w3.org/1999/xlink" version="1.1" x="0" y="0" viewBox="2.755000114440918 0 26.489002227783203 32" enable-background="new 0 0 32 32" xml:space="preserve" height="52.83434759216327" width="43.735285971008906" class="icon-icon-0" data-fill-palette-color="accent" id="icon-0"><g display="none" fill="#ed2647" data-fill-palette-color="accent"><g display="inline" fill="#ed2647" data-fill-palette-color="accent"><g fill="#ed2647" data-fill-palette-color="accent"><polygon fill="#ed2647" points="22.556,0 29.245,6.689 29.245,32 5.08,32 5.08,0    " data-fill-palette-color="accent"></polygon></g><g fill="#ed2647" data-fill-palette-color="accent"><polygon fill="#ed2647" points="29.245,6.689 22.555,6.689 22.555,0    " data-fill-palette-color="accent"></polygon></g><g fill="#ed2647" data-fill-palette-color="accent"><g fill="#ed2647" data-fill-palette-color="accent"><rect x="2.755" y="18.313" fill="#ed2647" width="24.093" height="8.118" data-fill-palette-color="accent"></rect></g><g fill="#ed2647" data-fill-palette-color="accent"><polygon fill="#ed2647" points="5.08,28.755 5.08,26.431 2.755,26.431     " data-fill-palette-color="accent"></polygon></g></g></g><g display="inline" fill="#ed2647" data-fill-palette-color="accent"><path fill="#ed2647" d="M10.349 24.835v-4.922h2.42c0.688 0 1.169 0.149 1.444 0.45 0.274 0.301 0.412 0.827 0.412 1.579 0 1.229-0.11 2.019-0.331 2.368-0.222 0.35-0.721 0.524-1.497 0.524H10.349zM11.282 24.049h1.331c0.447 0 0.736-0.103 0.867-0.309 0.131-0.205 0.196-0.659 0.196-1.361 0-0.726-0.059-1.188-0.177-1.385-0.117-0.197-0.395-0.295-0.829-0.295h-1.389V24.049z" data-fill-palette-color="accent"></path><path fill="#ed2647" d="M15.307 24.835v-4.922h2.42c0.567 0 0.954 0.09 1.159 0.271 0.206 0.182 0.309 0.523 0.309 1.026 0 0.608-0.241 0.967-0.725 1.074v0.019c0.562 0.086 0.844 0.477 0.844 1.172 0 0.502-0.108 0.854-0.324 1.057-0.217 0.202-0.595 0.303-1.133 0.303H15.307zM16.241 21.979h1.143c0.37 0 0.606-0.04 0.709-0.122s0.153-0.271 0.153-0.566c0-0.395-0.224-0.591-0.671-0.591h-1.334V21.979zM16.241 24.049h1.023l0.329-0.007c0.314 0 0.521-0.045 0.621-0.134 0.101-0.089 0.15-0.276 0.15-0.562 0-0.298-0.053-0.485-0.157-0.562s-0.362-0.115-0.773-0.115h-1.193V24.049z" data-fill-palette-color="accent"></path></g></g><g fill="#ed2647" data-fill-palette-color="accent"><g fill="#ed2647" data-fill-palette-color="accent"><path d="M12.769 19.374h-2.42v4.922h2.448c0.776 0 1.275-0.175 1.497-0.524 0.221-0.35 0.331-1.14 0.331-2.368 0-0.752-0.138-1.278-0.412-1.579C13.938 19.523 13.456 19.374 12.769 19.374zM13.48 23.201c-0.131 0.206-0.42 0.309-0.867 0.309h-1.331v-3.35h1.389c0.435 0 0.712 0.098 0.829 0.295 0.118 0.197 0.177 0.659 0.177 1.385C13.677 22.542 13.611 22.996 13.48 23.201z" fill="#ed2647" data-fill-palette-color="accent"></path><path d="M18.47 21.765v-0.019c0.483-0.107 0.725-0.466 0.725-1.074 0-0.503-0.103-0.845-0.309-1.026-0.205-0.182-0.592-0.271-1.159-0.271h-2.42v4.922h2.55c0.538 0 0.916-0.101 1.133-0.303 0.216-0.202 0.324-0.555 0.324-1.057C19.313 22.241 19.032 21.851 18.47 21.765zM16.241 20.16h1.334c0.447 0 0.671 0.196 0.671 0.591 0 0.296-0.051 0.484-0.153 0.566s-0.339 0.122-0.709 0.122h-1.143V20.16zM18.215 23.369c-0.1 0.089-0.307 0.134-0.621 0.134l-0.329 0.007h-1.023v-1.381h1.193c0.411 0 0.669 0.038 0.773 0.115s0.157 0.265 0.157 0.562C18.365 23.093 18.315 23.28 18.215 23.369z" fill="#ed2647" data-fill-palette-color="accent"></path><path d="M5.08 0v17.313H2.755v9.118h0l2.324 2.324v-2.324h0V32h24.165V6.689L22.556 0H5.08zM3.755 25.431v-7.118h22.093v7.118H3.755zM28.245 31H6.08v-4.569h20.768v-9.118H6.08V1h15.974v6.189h6.19V31zM23.055 2.414l3.776 3.775h-3.776V2.414z" fill="#ed2647" data-fill-palette-color="accent"></path></g></g></svg></g></svg></g><g></g></svg></g></svg></g></svg></g></svg></g><defs></defs></svg><rect width="320" height="360" fill="none" stroke="none" visibility="hidden"></rect></g></svg></g></svg>